<svg width="80" height="80" viewBox="0 0 429 438" fill="none" xmlns="http://www.w3.org/2000/svg">
<path d="M428.383 223.807C428.383 342.102 332.486 437.999 214.192 437.999C95.8966 437.999 0 342.102 0 223.807C0 105.512 95.8966 9.61584 214.192 9.61584C332.486 9.61584 428.383 105.512 428.383 223.807Z" fill="white"/>
<path d="M172.716 24.9668C191.529 18.6478 213.129 22.9692 228.115 37.9538C243.1 52.9385 247.421 74.5395 241.102 93.3525C222.289 99.6716 200.689 95.3502 185.703 80.3655C170.719 65.38 166.397 43.7799 172.716 24.9668Z" fill="#24BD87"/>
<path d="M183.091 37.7318C182.198 36.1809 183.93 34.449 185.481 35.3416C192.702 39.4986 202.442 47.2734 212.269 57.1017C222.097 66.9292 229.872 76.6692 234.029 83.8896C234.922 85.4405 233.19 87.1724 231.639 86.2798C224.419 82.1228 214.679 74.3472 204.851 64.5197C195.024 54.6923 187.248 44.9531 183.091 37.7318Z" fill="#029A64"/>
<path d="M254.869 119.183C251.424 122.628 245.711 122.333 242.714 118.492C220.242 89.6929 222.252 47.9902 248.744 21.4996C275.235 -4.99113 316.938 -7.00191 345.737 15.4698C349.577 18.4668 349.872 24.18 346.427 27.6246L254.869 119.183Z" fill="#FDE5BD"/>
<path d="M345.658 15.4078C345.609 15.3693 345.56 15.3317 345.511 15.2932C332.052 4.87391 314.028 2.15412 298.098 8.14798C290.126 11.1467 282.15 15.4279 274.523 20.9147C272.605 22.2942 272.556 25.1102 274.427 26.551C277.286 28.7523 279.328 31.9914 279.959 35.7752L283.347 56.1007L263.021 52.7129C259.238 52.0826 255.999 50.0412 253.798 47.1824C252.359 45.3142 249.542 45.3561 248.164 47.2707C242.738 54.8103 238.493 62.6916 235.499 70.5721C229.558 86.2055 231.783 103.885 241.792 117.283C242.075 117.662 242.362 118.039 242.653 118.413C245.668 122.288 251.397 122.654 254.869 119.182L346.427 27.6246C349.899 24.152 349.533 18.4239 345.658 15.4078ZM264.445 93.5658C259.406 98.7012 251.392 99.4399 245.498 95.3134C238.84 90.6511 237.222 81.4732 241.884 74.8149C246.011 68.9207 253.794 66.8749 260.286 69.9768L278.879 78.86L264.445 93.5658ZM320.81 37.2002L306.103 51.6332L297.22 33.0405C294.118 26.5483 296.165 18.7658 302.058 14.6384C308.716 9.97604 317.894 11.5943 322.557 18.2526C326.684 24.1477 325.945 32.161 320.81 37.2002Z" fill="#FFCDBC"/>
<path d="M313.229 86.3734C336.701 121.442 350.665 165.355 350.665 213.023C350.665 215.723 350.62 218.412 350.531 221.087C348.285 288.765 307.616 330.183 258.334 345.349C242.502 350.221 231.676 364.814 231.676 381.378V437.285C225.908 437.751 220.079 437.998 214.191 437.998C208.303 437.998 202.473 437.751 196.706 437.285V381.378C196.706 364.814 185.88 350.221 170.047 345.349C120.767 330.183 80.0972 288.765 77.8521 221.087C77.763 218.412 77.7184 215.723 77.7184 213.023C77.7184 165.355 91.6819 121.442 115.154 86.3734C118.384 81.5475 123.837 78.6817 129.645 78.6817H298.738C304.545 78.6817 309.999 81.5466 313.229 86.3734Z" fill="#B5F3FB"/>
<path d="M350.665 213.023C350.665 215.723 350.62 218.412 350.531 221.087C349.559 250.379 341.385 274.748 328.434 294.203C306.24 312.605 278.911 323.472 249.347 323.472C175.092 323.472 114.898 254.974 114.898 170.478C114.898 136.035 124.902 104.253 141.782 78.6817H227.436C228.45 92.8271 233.54 106.735 242.714 118.492C245.711 122.332 251.424 122.627 254.869 119.182L295.369 78.6817H298.738C304.545 78.6817 309.998 81.5466 313.228 86.3725C336.701 121.442 350.665 165.355 350.665 213.023ZM222.934 358.442C218.106 358.442 214.192 362.356 214.192 367.185V437.999C220.08 437.999 225.909 437.752 231.677 437.286V367.185C231.677 362.356 227.763 358.442 222.934 358.442Z" fill="#DCFBFF"/>
<path d="M300.172 139.879C307.037 139.879 313.061 144.379 315.096 150.936C321.226 170.684 324.438 191.682 324.438 213.023C324.438 215.405 324.398 217.826 324.318 220.217C321.977 290.781 271.999 313.702 250.62 320.282C250.462 320.331 250.303 320.38 250.145 320.43C226.715 327.834 201.67 327.835 178.24 320.43C178.082 320.381 177.922 320.331 177.763 320.282C156.384 313.702 106.406 290.78 104.066 220.217C103.987 217.834 103.947 215.414 103.947 213.023C103.947 192.664 106.87 172.616 112.461 153.669C114.883 145.458 122.506 139.879 131.068 139.879H300.172Z" fill="#E988A9"/>
<path d="M315.053 150.798C313.039 144.324 307.095 139.879 300.316 139.879H199.441C197.639 134.789 192.797 131.137 187.09 131.137C184.934 131.137 182.905 131.667 181.111 132.589C178.345 126.577 172.284 122.394 165.233 122.394C158.183 122.394 152.121 126.577 149.356 132.589C147.562 131.667 145.533 131.137 143.377 131.137C137.67 131.137 132.828 134.789 131.026 139.879C123.101 139.879 116.448 145.89 115.693 153.779C115.169 159.263 114.898 164.835 114.898 170.478C114.898 179.188 115.542 187.726 116.77 196.039C119.131 193.75 122.344 192.334 125.892 192.334C133.134 192.334 139.006 198.206 139.006 205.448C139.006 212.69 133.134 218.562 125.892 218.562C124.329 218.562 122.838 218.274 121.447 217.772C138.047 275.936 184.436 318.815 240.129 323.107C243.494 322.357 246.838 321.475 250.147 320.43C250.304 320.38 250.462 320.331 250.62 320.282C271.999 313.702 321.977 290.781 324.318 220.217C324.398 217.825 324.438 215.405 324.438 213.023C324.437 191.632 321.21 170.587 315.053 150.798ZM257.03 183.592C249.788 183.592 243.916 177.72 243.916 170.478C243.916 163.236 249.788 157.364 257.03 157.364C264.272 157.364 270.144 163.236 270.144 170.478C270.144 177.72 264.272 183.592 257.03 183.592ZM300.742 218.562C293.5 218.562 287.629 212.69 287.629 205.448C287.629 198.206 293.5 192.334 300.742 192.334C307.985 192.334 313.856 198.206 313.856 205.448C313.856 212.69 307.985 218.562 300.742 218.562Z" fill="#FC9302"/>
<path d="M193.363 250.13C198.484 255.251 198.484 263.554 193.363 268.676L168.635 293.403C163.514 298.524 155.211 298.524 150.09 293.403L125.362 268.676C120.241 263.554 120.241 255.252 125.362 250.13L150.09 225.402C155.211 220.281 163.514 220.281 168.635 225.402L193.363 250.13ZM265.772 227.304H230.802C223.56 227.304 217.689 233.176 217.689 240.418V275.388C217.689 282.631 223.56 288.502 230.802 288.502H265.772C273.015 288.502 278.886 282.631 278.886 275.388V240.418C278.886 233.176 273.015 227.304 265.772 227.304Z" fill="#FFC3B0"/>
<path d="M179.078 235.847C184.846 241.614 184.846 250.965 179.078 256.733C168.189 267.622 150.535 267.622 139.646 256.733C133.878 250.966 133.878 241.615 139.646 235.847L150.089 225.403C155.21 220.282 163.513 220.282 168.634 225.403L179.078 235.847ZM265.772 227.304H250.473C242.023 227.304 235.174 234.154 235.174 242.604C235.174 258.296 247.895 271.017 263.587 271.017C272.036 271.017 278.886 264.167 278.886 255.718V240.418C278.886 233.176 273.015 227.304 265.772 227.304Z" fill="#FFCDBC"/>
<path d="M226.431 187.963C226.431 204.862 212.732 218.562 195.832 218.562C178.933 218.562 165.234 204.862 165.234 187.963C165.234 171.064 178.933 157.364 195.832 157.364C212.732 157.364 226.431 171.064 226.431 187.963Z" fill="#C44775"/>
<path d="M226.431 187.963C226.431 193.085 225.166 197.909 222.941 202.151C218.699 204.376 213.875 205.641 208.753 205.641C191.854 205.641 178.154 191.942 178.154 175.043C178.154 169.92 179.419 165.096 181.644 160.854C185.886 158.63 190.71 157.364 195.832 157.364C212.732 157.364 226.431 171.064 226.431 187.963Z" fill="#D95785"/>
</svg>
